<svg xmlns="http://www.w3.org/2000/svg" viewBox="0 0 1195.6 960.4" width="1195.6" height="960.4" preserveAspectRatio="none" fill="none">
<title>GPU rack occupancy</title>
<g id="grid">
<rect x="38.00" y="766.04" width="1147.50" height="4.31" rx="2.16" fill="#4D5566" opacity="0.45"/>
<rect x="38.00" y="766.04" width="26.00" height="4.31" rx="2.16" fill="#4D5566"/>
<rect x="38.00" y="622.34" width="1147.50" height="4.31" rx="2.16" fill="#4D5566" opacity="0.45"/>
<rect x="38.00" y="622.34" width="26.00" height="4.31" rx="2.16" fill="#4D5566"/>
<rect x="38.00" y="478.64" width="1147.50" height="4.31" rx="2.16" fill="#4D5566" opacity="0.45"/>
<rect x="38.00" y="478.64" width="26.00" height="4.31" rx="2.16" fill="#4D5566"/>
<rect x="38.00" y="334.94" width="1147.50" height="4.31" rx="2.16" fill="#4D5566" opacity="0.45"/>
<rect x="38.00" y="334.94" width="26.00" height="4.31" rx="2.16" fill="#4D5566"/>
<rect x="38.00" y="191.24" width="1147.50" height="4.31" rx="2.16" fill="#4D5566" opacity="0.45"/>
<rect x="38.00" y="191.24" width="26.00" height="4.31" rx="2.16" fill="#4D5566"/>
<rect x="38.00" y="47.54" width="1147.50" height="4.31" rx="2.16" fill="#4D5566" opacity="0.45"/>
<rect x="38.00" y="47.54" width="26.00" height="4.31" rx="2.16" fill="#4D5566"/>
<rect x="33.69" y="40.00" width="4.31" height="868.00" rx="2.16" fill="#4D5566" opacity="0.6"/>
</g>
<g id="jobs">
<rect x="110.00" y="600.00" width="78.00" height="250.00" rx="39.00" fill="#24FFA7"/>
<rect x="206.00" y="460.00" width="78.00" height="340.00" rx="39.00" fill="#AB55FF"/>
<rect x="302.00" y="445.00" width="78.00" height="300.00" rx="39.00" fill="#24FFA7"/>
<rect x="398.00" y="380.00" width="78.00" height="320.00" rx="39.00" fill="#AB55FF"/>
<rect x="494.00" y="360.00" width="78.00" height="300.00" rx="39.00" fill="#24FFA7"/>
<rect x="590.00" y="260.00" width="78.00" height="360.00" rx="39.00" fill="#24FFA7"/>
<rect x="686.00" y="325.00" width="78.00" height="250.00" rx="39.00" fill="#AB55FF"/>
<rect x="782.00" y="265.00" width="78.00" height="270.00" rx="39.00" fill="#24FFA7"/>
<rect x="878.00" y="225.00" width="78.00" height="270.00" rx="39.00" fill="#AB55FF"/>
<rect x="974.00" y="170.00" width="78.00" height="290.00" rx="39.00" fill="#24FFA7"/>
<rect x="1070.00" y="170.00" width="78.00" height="250.00" rx="39.00" fill="#24FFA7"/>
</g>
</svg>
